<?xml version="1.0" standalone="no"?>
<!DOCTYPE svg PUBLIC "-//W3C//DTD SVG 20010904//EN"
 "http://www.w3.org/TR/2001/REC-SVG-20010904/DTD/svg10.dtd">
<svg version="1.0" xmlns="http://www.w3.org/2000/svg"
 width="1179.000000pt" height="1179.000000pt" viewBox="0 0 1179.000000 1179.000000"
 preserveAspectRatio="xMidYMid meet">
<metadata>
Created by potrace 1.14, written by Peter Selinger 2001-2017
</metadata>
<g transform="translate(0.000000,1179.000000) scale(0.100000,-0.100000)"
fill="#000000" stroke="none">
<path d="M3559 11028 c-1 -7 -2 -114 -3 -238 l-3 -225 -32 -75 c-18 -41 -49
-113 -69 -160 l-36 -85 -1 -767 -1 -768 25 -1 c42 -1 155 -1 166 0 7 1 10 255
9 744 l-1 742 70 165 70 165 1 258 2 257 -98 0 c-71 0 -98 -3 -99 -12z"/>
<path d="M2449 9498 c0 -13 0 -156 0 -318 0 -162 -4 -299 -9 -305 -5 -6 -80
-10 -199 -10 l-191 0 0 -97 c0 -71 -3 -98 -12 -99 -7 -1 -82 -2 -166 -3 l-153
-1 -61 -115 c-168 -321 -353 -594 -533 -788 -66 -72 -125 -129 -167 -162 -41
-32 -212 -248 -304 -385 -333 -494 -554 -1059 -624 -1601 -37 -277 -34 -665 5
-921 3 -18 8 -50 11 -70 18 -121 107 -468 134 -528 5 -11 16 -40 24 -65 41
-125 180 -429 269 -586 92 -163 280 -442 391 -581 26 -32 53 -65 59 -73 42
-55 131 -158 232 -269 85 -93 339 -345 437 -432 51 -45 95 -85 98 -88 3 -3 32
-28 65 -56 33 -27 62 -52 65 -55 3 -3 51 -43 106 -87 l102 -82 24 27 c13 15
41 49 61 77 l38 50 -29 25 c-16 14 -90 76 -164 137 -258 213 -477 423 -723
694 -187 205 -454 570 -565 774 -18 33 -36 65 -40 70 -16 21 -139 273 -175
360 -93 224 -164 462 -204 680 -37 203 -45 303 -46 540 0 201 9 359 25 444 5
25 11 66 15 91 30 205 129 538 237 789 82 194 246 493 350 641 94 134 208 278
254 322 202 193 315 323 448 514 95 137 219 342 292 483 l14 26 192 1 c106 1
199 2 206 3 9 1 13 13 12 34 -1 17 -2 61 -1 97 l1 65 198 0 197 0 1 315 c1
173 2 321 3 328 1 9 53 12 226 12 l225 0 0 -929 c0 -734 3 -930 13 -933 10 -3
112 -3 170 1 16 1 17 57 17 1031 l0 1030 -425 0 -425 0 -1 -22z"/>
<path d="M9329 7251 c-6 -2 -26 -35 -44 -75 -35 -73 -33 -89 11 -81 10 2 24 4
30 4 6 1 24 20 41 44 17 23 43 55 57 72 14 16 23 31 21 34 -6 5 -101 7 -116 2z"/>
<path d="M3910 7181 l0 -58 48 2 47 1 3 57 3 57 -51 0 -50 0 0 -59z"/>
<path d="M6779 7238 c-6 -19 -2 -101 6 -107 5 -4 28 -7 50 -7 l40 1 1 58 1 57
-49 0 c-26 0 -48 -1 -49 -2z"/>
<path d="M8817 7233 c-2 -5 -3 -30 -2 -58 l1 -50 49 0 49 0 1 45 c1 25 0 51
-3 58 -4 13 -88 17 -95 5z"/>
<path d="M6520 7184 c-46 -34 -47 -36 -49 -126 l-1 -46 -37 1 c-36 2 -38 0
-41 -32 -4 -39 9 -51 49 -44 27 4 29 2 30 -29 0 -18 1 -112 1 -208 1 -96 5
-190 10 -208 12 -46 58 -72 130 -72 76 0 88 5 81 38 -3 15 -6 33 -6 40 0 9
-12 11 -38 8 -73 -8 -74 -4 -74 226 l0 203 40 1 c22 1 48 2 57 3 12 1 16 9 14
33 -3 35 -21 45 -78 43 l-36 -1 0 99 c0 54 -2 100 -4 102 -2 1 -23 -13 -48
-31z"/>
<path d="M4356 7015 c-21 -7 -55 -27 -76 -43 l-37 -31 2 35 c1 19 -2 34 -7 35
-4 0 -25 1 -45 2 l-38 0 -3 -295 -2 -296 50 1 50 0 1 181 c1 209 3 229 31 275
50 80 191 81 233 1 12 -23 15 -71 15 -243 l0 -213 48 0 47 1 0 241 0 241 -27
40 c-14 22 -43 48 -62 57 -48 23 -131 28 -180 11z"/>
<path d="M5460 7010 c-119 -40 -183 -154 -176 -314 5 -99 30 -163 87 -216 100
-93 291 -90 381 7 26 27 70 104 63 111 -2 2 -26 6 -54 9 -44 4 -51 3 -51 -12
0 -45 -109 -111 -165 -100 -11 2 -28 4 -37 4 -44 2 -105 82 -118 154 -9 44
-37 39 237 39 212 1 208 0 198 63 -24 143 -64 207 -152 247 -59 26 -149 30
-213 8z m144 -69 c28 -1 93 -72 105 -116 6 -21 8 -41 6 -43 -3 -3 -77 -5 -165
-6 -138 -1 -160 1 -160 14 0 27 44 103 71 123 27 20 83 36 109 31 8 -1 23 -3
34 -3z"/>
<path d="M6022 7011 c-102 -35 -147 -130 -107 -226 20 -47 111 -91 226 -110
60 -9 104 -45 106 -85 2 -19 -3 -43 -11 -52 -34 -44 -140 -57 -191 -24 -14 9
-33 34 -43 54 -19 41 -31 54 -45 45 -6 -3 -19 -7 -31 -8 -11 -1 -25 -3 -30 -4
-13 -2 1 -60 25 -97 80 -130 343 -121 413 13 33 64 22 145 -27 193 -31 30 -70
45 -197 75 -92 22 -112 38 -108 82 5 58 44 79 140 74 34 -1 88 -46 88 -73 0
-18 4 -20 31 -14 17 3 40 6 50 6 51 0 -6 106 -73 139 -62 29 -150 34 -216 12z"/>
<path d="M7160 7016 c-91 -29 -141 -87 -166 -192 -19 -81 -12 -183 15 -248 62
-143 247 -197 362 -106 l37 29 -5 -62 c-8 -117 -59 -169 -163 -169 -64 1 -101
19 -120 59 -12 27 -22 33 -58 39 -24 3 -46 4 -49 0 -13 -13 20 -89 53 -122 39
-37 94 -56 164 -57 110 -1 178 25 224 86 48 64 51 91 51 426 l0 315 -27 -1
c-16 -1 -37 -1 -49 -2 -13 -1 -20 -7 -18 -18 4 -43 -1 -47 -28 -21 -16 15 -41
32 -58 38 -43 17 -124 20 -165 6z m160 -91 c58 -30 93 -100 93 -190 0 -80 -17
-138 -54 -180 -54 -61 -157 -65 -214 -7 -39 39 -57 88 -59 167 -3 78 11 132
49 181 38 49 120 62 185 29z"/>
<path d="M7800 7020 c-52 -11 -82 -25 -113 -54 -27 -25 -70 -106 -62 -115 3
-2 25 -7 51 -11 l45 -7 16 39 c19 48 58 70 128 71 84 2 125 -37 125 -119 0
-19 -3 -33 -7 -32 -5 1 -30 -3 -58 -10 -27 -6 -68 -14 -90 -17 -157 -22 -235
-96 -221 -209 18 -140 210 -193 346 -95 l39 29 9 -32 c8 -31 10 -33 60 -34 49
-2 52 0 46 20 -18 54 -21 95 -23 266 -2 219 -12 254 -84 289 -46 22 -150 33
-207 21z m174 -436 c-44 -93 -198 -127 -243 -52 -24 38 -17 85 16 114 21 18
83 36 207 60 10 2 21 6 25 10 15 15 11 -98 -5 -132z"/>
<path d="M8405 7022 c-131 -28 -209 -144 -208 -308 0 -98 26 -167 84 -226 119
-120 330 -97 413 45 34 57 40 97 17 97 -10 0 -32 3 -48 6 -28 5 -31 3 -47 -40
-51 -133 -224 -137 -290 -8 -30 59 -36 160 -14 234 17 56 68 104 124 116 76
16 136 -9 169 -73 19 -36 21 -37 64 -31 25 3 46 8 49 10 8 9 -37 92 -64 118
-16 15 -47 34 -69 44 -39 16 -139 25 -180 16z"/>
<path d="M9201 7010 c-112 -38 -174 -137 -177 -285 -5 -183 85 -297 246 -312
117 -10 217 42 267 141 21 40 27 70 31 142 5 104 -10 166 -57 231 -61 85 -198
121 -310 83z m170 -80 c19 0 71 -70 85 -113 22 -66 15 -176 -14 -233 -51 -99
-185 -120 -258 -42 -43 46 -57 89 -58 177 -1 62 4 85 24 125 39 78 103 112
180 94 19 -4 38 -8 41 -8z"/>
<path d="M9881 7015 c-24 -8 -59 -28 -77 -46 l-34 -33 0 37 c0 20 -3 37 -7 38
-5 0 -23 2 -41 3 -18 2 -35 -1 -39 -7 -3 -6 -6 -139 -6 -296 l0 -286 44 -1
c24 -1 47 3 51 9 4 6 7 91 7 189 -1 228 12 272 88 304 63 27 139 11 169 -34
19 -28 23 -86 24 -352 l0 -115 48 0 47 0 1 228 c1 221 1 229 -22 276 -41 81
-147 117 -253 86z"/>
<path d="M3914 7011 c-2 -2 -4 -135 -4 -296 l0 -291 50 0 50 -1 0 294 c0 161
-3 293 -7 294 -31 4 -85 4 -89 0z"/>
<path d="M4710 7006 c0 -9 96 -267 189 -506 l28 -75 48 0 47 0 109 289 c60
160 107 292 105 294 -10 9 -87 8 -95 -2 -7 -9 -145 -386 -163 -446 -3 -8 -21
32 -40 90 -69 202 -121 345 -128 353 -11 13 -100 15 -100 3z"/>
<path d="M6776 7010 c-2 -5 1 -555 3 -576 1 -7 20 -11 49 -10 l47 2 1 284 c0
157 -1 290 -3 295 -3 10 -93 15 -97 5z"/>
<path d="M8817 7005 c-2 -5 -3 -138 -3 -295 l1 -285 50 0 50 -1 -1 291 c-1
159 -2 292 -3 295 -2 10 -91 5 -94 -5z"/>
<path d="M1457 6839 c-20 -5 -56 -18 -80 -30 -58 -30 -195 -169 -252 -257
-103 -161 -205 -405 -220 -527 -3 -32 -8 -62 -10 -65 -1 -3 -6 -34 -9 -70 -4
-36 -11 -103 -16 -150 -32 -296 -35 -883 -5 -1072 2 -13 9 -57 15 -98 36 -231
113 -445 205 -572 78 -107 310 -267 460 -316 99 -33 242 -46 515 -46 218 -1
383 10 435 28 7 2 10 94 10 255 0 162 3 251 10 252 5 0 200 1 433 1 l423 0 -3
101 -3 100 -485 -1 c-267 0 -491 -1 -497 -1 -7 -1 -27 -14 -45 -30 l-32 -29
-1 -208 c0 -115 -4 -211 -8 -213 -3 -2 -37 -10 -74 -17 -71 -13 -358 -13 -463
1 -122 16 -293 55 -337 77 -152 75 -265 297 -317 621 -21 133 -25 165 -31 253
-3 44 -8 102 -11 129 -5 60 -5 505 1 590 2 33 7 103 10 155 4 52 8 109 9 125
2 17 7 66 11 110 12 135 87 331 177 463 49 73 156 172 214 199 51 23 54 23 85
7 63 -32 162 -159 229 -293 54 -108 130 -315 146 -395 2 -11 11 -41 20 -68 28
-86 14 -83 447 -83 408 0 421 1 448 51 10 20 13 100 14 362 l0 337 -98 3 c-73
2 -97 0 -98 -10 -1 -7 -3 -128 -4 -268 -1 -140 -3 -260 -4 -266 -1 -7 -82 -10
-250 -10 l-249 0 -32 95 c-17 53 -61 156 -96 230 -182 380 -406 590 -587 550z"/>
<path d="M5065 5820 c-19 -38 -35 -74 -35 -80 0 -5 17 -10 39 -10 36 0 42 5
95 74 31 40 56 76 56 79 0 3 -27 6 -60 6 l-60 0 -35 -69z"/>
<path d="M5861 5860 c-3 -8 -6 -72 -6 -142 1 -71 -2 -128 -6 -128 -3 0 -13 7
-20 17 -38 45 -148 66 -233 42 -57 -16 -121 -80 -147 -147 -33 -87 -31 -219 5
-298 34 -73 57 -99 120 -131 86 -44 193 -31 259 30 27 26 27 26 28 4 1 -12 1
-28 0 -34 -1 -9 14 -13 47 -13 l49 0 0 405 c0 223 -3 405 -6 406 -45 7 -84 2
-90 -11z m-108 -294 c44 -19 72 -52 92 -111 30 -89 19 -202 -26 -266 -53 -76
-194 -78 -246 -3 -60 86 -61 251 -2 335 37 53 117 73 182 45z"/>
<path d="M6104 5866 c-5 -17 -6 -38 -5 -73 1 -33 1 -33 51 -33 l50 0 0 55 c0
30 -3 55 -7 56 -42 6 -86 3 -89 -5z"/>
<path d="M9040 5872 c-13 -2 -15 -50 -13 -370 1 -202 2 -384 2 -404 l1 -38 48
0 49 0 1 405 c1 223 -2 405 -6 406 -21 3 -69 4 -82 1z"/>
<path d="M9274 5871 c-2 -2 -4 -28 -4 -58 l0 -53 50 0 50 0 0 55 c0 30 -3 55
-7 56 -31 4 -85 4 -89 0z"/>
<path d="M11088 5869 c-9 -6 -13 -45 -15 -136 0 -70 -2 -131 -2 -135 -1 -4
-21 7 -46 24 -37 26 -57 33 -111 36 -117 8 -209 -51 -249 -159 -28 -77 -28
-226 1 -290 76 -165 265 -215 387 -101 l27 26 0 -38 0 -37 47 3 47 3 0 398 c1
247 -3 401 -9 405 -14 9 -63 9 -77 1z m-104 -312 c105 -59 129 -284 40 -380
-80 -87 -218 -53 -262 64 -34 92 -16 234 36 293 43 48 124 58 186 23z"/>
<path d="M4067 5630 c-26 -16 -47 -34 -47 -40 0 -5 -5 -10 -11 -10 -5 0 -9 8
-8 18 4 47 0 52 -46 52 l-45 0 0 -295 0 -295 49 0 50 0 3 208 c3 195 4 209 26
243 33 54 103 77 160 53 55 -23 62 -55 62 -294 l0 -210 49 0 50 0 3 203 c3
224 11 257 68 290 66 39 154 17 171 -43 4 -14 7 -121 8 -237 l1 -213 51 0 50
0 -3 243 c-3 221 -5 245 -23 277 -56 97 -234 108 -308 20 l-26 -31 -39 39
c-41 41 -73 52 -151 52 -35 0 -59 -8 -94 -30z"/>
<path d="M4982 5642 c-54 -23 -105 -69 -130 -119 -62 -123 -47 -296 32 -389
103 -120 327 -115 418 10 28 38 52 86 46 91 -2 1 -23 5 -48 8 -44 5 -45 5 -71
-37 -83 -136 -287 -79 -306 86 l-5 38 221 0 222 0 -6 58 c-11 120 -58 203
-138 244 -58 30 -176 35 -235 10z m196 -89 c29 -21 72 -96 72 -125 0 -17 -13
-18 -165 -18 -107 0 -165 4 -165 10 0 21 31 85 53 109 12 13 36 30 52 37 40
19 119 12 153 -13z"/>
<path d="M6488 5650 c-49 -15 -98 -51 -126 -93 -47 -69 -56 -105 -55 -217 1
-177 108 -292 270 -292 127 1 220 68 253 184 8 26 6 28 -28 34 -20 3 -41 7
-47 8 -5 2 -21 -20 -35 -48 -31 -64 -77 -96 -137 -96 -111 0 -178 91 -175 238
3 138 82 224 195 209 50 -7 86 -33 112 -80 18 -32 23 -36 50 -31 16 3 37 7 45
9 29 5 -4 83 -54 127 -17 15 -51 34 -75 43 -47 16 -148 19 -193 5z"/>
<path d="M7039 5646 c-59 -21 -93 -51 -119 -105 -13 -28 -22 -53 -19 -55 2 -2
24 -7 49 -11 45 -6 46 -6 59 27 18 46 56 71 115 76 89 7 130 -24 140 -105 6
-45 9 -42 -72 -58 -13 -2 -31 -6 -40 -9 -9 -3 -39 -7 -66 -11 -71 -9 -147 -48
-173 -90 -49 -76 -20 -191 60 -235 76 -43 216 -22 284 42 l23 21 0 -20 c0 -45
10 -53 65 -53 l53 0 -14 40 c-10 28 -15 102 -17 238 -3 211 -10 241 -61 283
-46 38 -193 52 -267 25z m226 -347 c-7 -73 -32 -120 -81 -146 -93 -51 -194
-21 -194 57 0 58 34 91 110 104 19 3 60 12 90 20 83 21 80 22 75 -35z"/>
<path d="M7921 5646 c-55 -18 -98 -58 -122 -115 -11 -24 -18 -45 -17 -46 2 -2
23 -6 48 -10 44 -6 45 -6 65 32 27 52 75 75 143 70 69 -5 102 -35 109 -100 l5
-44 -48 -11 c-27 -7 -77 -16 -111 -22 -158 -27 -223 -81 -223 -185 0 -168 222
-230 366 -103 21 19 22 19 28 -16 l7 -36 54 0 55 0 -12 28 c-7 16 -14 114 -17
242 -6 201 -8 217 -29 251 -12 20 -39 45 -60 55 -48 24 -180 29 -241 10z m229
-333 c0 -65 -18 -110 -57 -142 -34 -28 -79 -46 -110 -44 -7 0 -24 1 -38 2 -51
2 -87 67 -66 119 15 35 56 56 156 77 44 9 85 18 90 20 22 7 25 4 25 -32z"/>
<path d="M8586 5650 c-16 -5 -47 -23 -68 -41 -39 -31 -40 -31 -38 -8 4 46 1
49 -45 49 l-45 0 2 -407 3 -408 48 -1 47 -2 0 145 0 144 36 -27 c124 -95 300
-46 365 101 57 128 32 313 -53 396 -64 62 -164 85 -252 59z m127 -84 c69 -29
110 -114 106 -221 -4 -133 -65 -215 -158 -215 -109 0 -169 75 -176 220 -8 163
104 269 228 216z"/>
<path d="M9643 5643 c-105 -36 -171 -152 -167 -290 4 -139 51 -229 144 -275
142 -70 305 -18 365 115 15 32 25 61 22 64 -3 2 -27 5 -53 6 -46 2 -48 1 -57
-30 -31 -106 -170 -136 -256 -55 -82 78 -86 267 -8 350 74 80 201 64 252 -31
18 -32 23 -36 50 -31 16 3 37 7 45 9 34 6 -15 102 -71 141 -65 45 -182 57
-266 27z"/>
<path d="M10210 5644 c-25 -8 -52 -20 -60 -27 -27 -21 -67 -81 -74 -108 -5
-24 -2 -27 25 -33 54 -11 68 -7 75 18 3 13 19 36 34 51 24 23 40 28 87 31 32
1 68 -2 80 -6 30 -12 53 -50 58 -98 l4 -41 -72 -15 c-40 -9 -88 -18 -107 -20
-130 -18 -200 -82 -200 -184 0 -121 117 -193 257 -156 31 8 73 28 94 45 35 28
39 29 39 11 0 -44 10 -52 65 -52 l53 0 -14 39 c-9 26 -14 97 -14 219 -2 203
-10 248 -51 290 -49 50 -181 68 -279 36z m222 -354 c-3 -68 -27 -109 -80 -138
-84 -47 -175 -26 -188 44 -14 74 34 111 163 127 5 0 26 6 48 13 22 7 45 11 50
10 6 -2 9 -27 7 -56z"/>
<path d="M11423 5644 c-23 -8 -54 -27 -69 -42 -26 -26 -70 -109 -62 -118 3 -2
25 -7 49 -10 43 -6 45 -5 59 27 24 54 62 74 136 74 80 0 110 -25 119 -96 l5
-47 -44 -11 c-24 -6 -61 -13 -83 -16 -75 -12 -158 -36 -183 -54 -104 -75 -91
-228 25 -289 46 -23 151 -20 206 8 24 12 54 31 65 42 l22 19 6 -35 7 -36 55 0
c49 0 54 2 46 18 -17 32 -22 86 -23 261 0 104 -5 187 -13 207 -16 48 -57 88
-104 102 -53 16 -168 14 -219 -4z m229 -354 c-3 -73 -27 -110 -89 -141 -57
-29 -108 -31 -148 -5 -46 30 -41 119 9 146 27 14 206 59 221 55 6 -1 9 -26 7
-55z"/>
<path d="M6099 5613 c0 -53 0 -525 0 -540 1 -9 18 -13 51 -13 l50 0 0 295 0
295 -50 0 -50 0 -1 -37z"/>
<path d="M9270 5355 l0 -295 50 0 50 0 0 295 0 295 -50 0 -50 0 0 -295z"/>
<path d="M3925 4552 c-3 -3 -5 -147 -5 -319 l0 -314 28 3 27 3 1 312 0 311
-23 5 c-12 2 -25 2 -28 -1z"/>
<path d="M4605 4551 c-20 -6 -21 -13 -21 -319 l0 -313 25 3 c22 3 26 8 26 35
l0 32 25 -23 c70 -65 175 -71 242 -13 51 44 72 102 73 197 0 73 -4 93 -26 135
-30 59 -74 91 -134 101 -54 8 -105 -8 -144 -45 -17 -16 -32 -27 -33 -26 -2 2
-2 56 -2 119 1 64 -1 118 -5 120 -3 1 -15 0 -26 -3z m266 -249 c63 -71 66
-212 6 -292 -65 -87 -199 -55 -228 54 -28 103 0 217 63 256 50 32 122 23 159
-18z"/>
<path d="M7440 4551 c-20 -5 -25 -14 -26 -39 0 -32 15 -46 41 -36 10 4 15 20
15 45 0 21 -1 39 -2 38 -2 -1 -14 -4 -28 -8z"/>
<path d="M8652 4551 c-6 -4 -11 -46 -11 -101 0 -150 3 -138 -28 -108 -37 34
-60 44 -108 47 -75 4 -148 -44 -182 -119 -38 -87 -17 -238 42 -300 38 -39 103
-63 151 -56 22 3 42 5 46 6 5 0 25 16 46 35 l39 35 -2 -35 c-1 -32 1 -35 26
-35 l27 0 0 314 c-1 292 -2 315 -18 319 -10 2 -22 2 -28 -2z m-56 -253 c76
-84 61 -270 -26 -321 -37 -22 -98 -21 -136 2 -47 28 -68 83 -69 171 0 129 52
195 149 187 41 -4 55 -10 82 -39z"/>
<path d="M6395 4502 c-16 -13 -20 -28 -19 -69 l1 -53 -34 0 c-29 0 -33 -3 -33
-25 0 -22 4 -25 33 -25 l34 0 0 -162 c0 -197 5 -226 43 -242 41 -17 109 -9
105 12 -2 10 -4 21 -4 26 -1 4 -12 5 -26 2 -17 -4 -31 0 -45 14 -18 18 -20 33
-20 185 0 125 3 165 13 166 6 1 27 1 45 1 28 -1 32 2 32 23 0 23 -4 25 -45 25
l-45 0 0 70 c0 39 -3 70 -7 70 -5 -1 -17 -8 -28 -18z"/>
<path d="M4220 4382 c-35 -5 -87 -47 -106 -83 -18 -35 -18 -36 18 -43 21 -3
27 0 32 20 15 60 139 87 190 42 16 -15 27 -38 31 -66 7 -50 2 -53 -114 -71
-134 -21 -188 -69 -178 -158 8 -77 73 -120 164 -109 48 6 122 47 124 69 0 6 6
-4 13 -23 10 -27 19 -36 40 -38 25 -3 27 -1 20 20 -4 13 -8 93 -9 178 -3 195
-12 227 -75 252 -28 11 -112 17 -150 10z m167 -278 c-10 -94 -62 -144 -149
-144 -59 0 -88 26 -88 81 0 48 31 74 108 90 31 6 68 15 82 19 51 17 53 14 47
-46z"/>
<path d="M5205 4381 c-44 -11 -70 -27 -99 -61 -65 -78 -66 -250 -2 -335 70
-91 214 -99 297 -16 101 101 76 335 -42 397 -35 18 -111 25 -154 15z m145 -76
c84 -80 71 -275 -21 -328 -41 -23 -104 -22 -144 3 -94 58 -95 279 -1 340 46
31 126 23 166 -15z"/>
<path d="M5675 4370 c-16 -10 -34 -29 -41 -42 -13 -22 -13 -21 -14 15 0 33 -3
37 -25 37 l-25 0 0 -231 0 -230 27 3 27 3 2 155 c1 165 7 191 48 229 21 20 32
23 71 19 41 -5 46 -4 51 19 8 31 2 36 -50 39 -28 2 -52 -4 -71 -16z"/>
<path d="M5980 4377 c-20 -7 -45 -19 -56 -27 -24 -17 -57 -77 -50 -89 11 -18
48 -3 67 27 22 38 54 52 114 52 58 0 93 -30 100 -86 4 -38 2 -43 -23 -52 -15
-6 -55 -15 -89 -21 -137 -22 -190 -69 -180 -158 12 -109 148 -148 254 -73 l41
30 11 -30 c8 -23 16 -30 37 -30 21 0 25 3 19 18 -4 9 -9 93 -11 185 -4 180
-11 210 -58 240 -32 22 -131 29 -176 14z m176 -273 c-4 -66 -26 -101 -81 -128
-65 -32 -125 -22 -147 25 -18 36 -13 72 13 95 16 15 164 60 206 63 8 1 11 -16
9 -55z"/>
<path d="M6715 4371 c-75 -34 -114 -100 -120 -203 -6 -110 36 -198 114 -237
44 -23 142 -21 188 3 66 33 106 117 105 217 0 99 -41 183 -105 216 -46 23
-135 25 -182 4z m175 -66 c72 -69 73 -236 2 -308 -25 -24 -41 -31 -84 -34
-102 -8 -153 54 -153 187 0 131 52 194 153 187 41 -3 59 -10 82 -32z"/>
<path d="M7225 4378 c-11 -6 -30 -22 -42 -37 l-23 -26 0 33 c0 27 -3 32 -25
32 -19 0 -25 -5 -26 -22 -1 -29 -1 -397 0 -420 1 -12 9 -18 26 -18 17 0 25 6
26 18 0 9 1 80 3 157 3 200 28 245 129 232 33 -5 38 -2 43 19 4 14 4 27 1 30
-10 11 -93 12 -112 2z"/>
<path d="M7706 4375 c-84 -30 -131 -110 -130 -226 0 -121 54 -205 146 -229 46
-13 118 -6 160 16 59 31 100 115 100 209 2 121 -47 204 -134 230 -63 18 -91
18 -142 0z m164 -70 c40 -39 60 -101 54 -176 -7 -98 -50 -156 -122 -166 -108
-14 -167 52 -166 187 1 132 50 194 152 187 41 -3 59 -10 82 -32z"/>
<path d="M8937 4376 c-82 -30 -128 -105 -133 -216 -4 -102 30 -179 97 -219 94
-55 211 -30 272 59 23 34 21 45 -8 48 -17 1 -29 -6 -42 -28 -39 -67 -156 -81
-208 -26 -25 27 -45 68 -51 105 l-7 41 171 0 c94 0 173 3 175 8 2 4 -2 35 -9
70 -22 105 -75 159 -166 167 -33 3 -68 0 -91 -9z m164 -75 c31 -37 54 -110 35
-112 -45 -4 -268 0 -273 5 -14 14 33 101 67 124 29 20 44 23 89 19 47 -3 59
-9 82 -36z"/>
<path d="M7417 4373 c-2 -5 -3 -107 -3 -228 l1 -220 28 -3 27 -3 0 230 0 231
-24 0 c-14 0 -27 -3 -29 -7z"/>
<path d="M5046 3461 c-48 -76 -49 -81 -23 -81 16 0 34 12 50 33 13 17 34 43
46 56 11 13 21 25 21 25 0 1 -16 2 -36 2 -31 0 -39 -5 -58 -35z"/>
<path d="M5363 3488 c-6 -11 -11 -580 -5 -609 2 -10 14 -16 28 -16 21 0 24 4
25 41 3 237 1 578 -5 583 -11 12 -36 12 -43 1z"/>
<path d="M5543 3458 c1 -35 3 -38 29 -38 28 0 29 2 26 38 -3 32 -6 37 -29 37
-24 1 -27 -2 -26 -37z"/>
<path d="M6164 3492 c-5 -4 -9 -20 -9 -37 0 -25 4 -30 28 -33 25 -3 27 -1 27
35 0 30 -4 39 -18 40 -10 1 -22 -2 -28 -5z"/>
<path d="M7485 3492 c-3 -3 -5 -146 -5 -318 l0 -313 28 2 27 2 0 315 0 315
-22 1 c-12 1 -25 -1 -28 -4z"/>
<path d="M7711 3490 c-8 -6 -61 -96 -61 -104 0 -3 9 -6 19 -6 16 0 111 96 111
111 0 6 -60 5 -69 -1z"/>
<path d="M8344 3492 c-5 -4 -10 -22 -10 -39 -2 -30 1 -33 27 -33 27 0 29 3 29
38 0 29 -4 38 -18 39 -10 1 -22 -2 -28 -5z"/>
<path d="M4005 3311 c-44 -20 -65 -41 -83 -83 -11 -27 -10 -28 18 -28 23 0 33
7 45 30 18 35 51 50 110 52 70 1 105 -33 105 -104 0 -30 -20 -39 -129 -58 -36
-7 -81 -20 -102 -30 -66 -34 -86 -120 -42 -186 18 -28 88 -56 123 -50 14 2 35
5 47 5 12 1 42 17 67 36 44 33 46 34 46 12 0 -30 11 -42 38 -43 21 -1 22 1 16
41 -3 24 -6 105 -7 182 0 166 -12 201 -77 227 -53 21 -125 20 -175 -3z m194
-265 c-4 -88 -65 -146 -154 -146 -64 0 -104 65 -75 121 13 23 53 44 100 53 71
13 83 15 88 21 3 3 14 5 24 5 17 0 19 -7 17 -54z"/>
<path d="M4530 3319 c-14 -5 -37 -22 -52 -36 l-28 -27 0 32 c0 27 -4 32 -25
32 -14 0 -25 -3 -26 -7 -1 -11 -1 -414 0 -433 1 -18 37 -24 47 -9 3 5 6 72 6
147 1 146 8 187 36 219 52 59 160 58 192 -3 9 -15 14 -79 16 -186 1 -90 2
-169 3 -175 1 -7 12 -12 27 -11 l25 2 -3 191 c-3 202 -6 216 -58 252 -27 19
-127 27 -160 12z"/>
<path d="M4964 3312 c-73 -35 -110 -105 -59 -114 19 -4 26 0 34 23 12 35 61
61 118 61 57 0 90 -23 98 -66 13 -66 9 -69 -100 -91 -112 -23 -153 -43 -178
-87 -45 -79 6 -167 105 -183 46 -7 125 18 159 51 l29 28 0 -25 c0 -33 10 -45
42 -47 25 -2 26 0 17 26 -5 15 -11 99 -12 187 -4 177 -12 207 -61 232 -48 25
-144 27 -192 5z m196 -267 c-7 -63 -32 -102 -81 -127 -74 -38 -159 -7 -159 57
0 59 27 80 140 105 113 26 107 28 100 -35z"/>
<path d="M5784 3310 c-94 -47 -91 -174 6 -213 19 -8 61 -20 92 -26 74 -16 108
-42 108 -85 0 -53 -38 -81 -112 -81 -54 0 -62 3 -88 31 -15 17 -29 37 -32 44
-2 6 -16 10 -31 8 l-28 -3 23 -45 c28 -55 70 -80 140 -84 91 -6 148 24 174 92
34 85 -11 148 -121 172 -89 19 -135 40 -141 65 -9 35 -2 56 26 77 46 34 152
20 165 -22 7 -21 29 -32 50 -24 24 9 18 31 -19 67 -51 51 -140 62 -212 27z"/>
<path d="M6404 3316 c-48 -21 -74 -62 -74 -113 0 -64 43 -106 125 -123 100
-21 134 -38 144 -74 30 -112 -178 -149 -220 -38 -6 15 -17 22 -34 22 -31 0
-33 -22 -6 -66 58 -95 249 -91 303 7 27 48 19 115 -16 146 -25 21 -94 46 -161
57 -105 18 -111 127 -8 146 53 9 117 -16 126 -50 4 -16 11 -21 22 -16 9 3 23
6 31 6 23 0 -9 53 -47 81 -39 28 -139 36 -185 15z"/>
<path d="M7115 3319 c-85 -26 -136 -124 -129 -248 8 -145 97 -230 223 -215 76
9 126 46 155 115 17 40 13 49 -18 49 -15 0 -27 -13 -40 -41 -24 -54 -56 -73
-123 -73 -50 -1 -57 2 -88 36 -19 20 -39 56 -45 79 -15 53 -5 154 18 194 24
40 74 67 123 67 49 -1 84 -22 111 -68 16 -28 25 -33 42 -28 30 9 30 9 5 56
-41 73 -139 106 -234 77z"/>
<path d="M7969 3308 c-19 -11 -38 -27 -42 -34 -13 -23 -23 -16 -21 16 2 27 -1
30 -26 30 l-27 0 1 -227 1 -228 28 -2 27 -2 0 155 c0 112 4 164 14 189 32 75
142 101 197 46 l29 -29 0 -181 0 -180 28 2 27 2 0 186 c0 202 -4 218 -62 256
-40 27 -131 27 -174 1z"/>
<path d="M8614 3311 c-145 -66 -159 -336 -22 -426 69 -46 188 -36 244 19 6 7
22 32 34 55 18 35 19 45 8 52 -26 17 -43 8 -59 -30 -31 -74 -124 -103 -189
-59 -73 49 -99 181 -54 278 48 103 187 113 239 16 15 -28 24 -35 40 -30 29 9
29 10 16 43 -37 89 -157 127 -257 82z"/>
<path d="M9090 3314 c-82 -35 -122 -107 -123 -222 0 -97 37 -175 102 -211 84
-46 203 -26 256 43 71 93 62 281 -16 355 -53 50 -149 65 -219 35z m187 -82
c65 -80 44 -271 -35 -313 -39 -22 -116 -18 -149 7 -50 37 -67 80 -67 164 0
118 37 175 122 190 46 8 99 -12 129 -48z"/>
<path d="M9533 3309 c-63 -31 -82 -83 -58 -158 9 -30 52 -53 145 -78 118 -31
150 -77 97 -138 -47 -56 -170 -39 -197 26 -10 22 -19 29 -41 29 -26 0 -27 -1
-18 -32 19 -69 95 -110 191 -102 84 7 149 71 142 142 -1 15 -2 32 -3 39 -3 32
-76 76 -149 89 -69 12 -110 34 -119 62 -13 38 -7 56 25 74 54 32 115 27 155
-14 34 -35 47 -40 67 -28 13 8 0 41 -26 68 -44 44 -145 54 -211 21z"/>
<path d="M5545 3103 c1 -120 3 -224 3 -230 1 -7 13 -12 27 -11 l25 2 0 228 0
228 -28 0 -28 0 1 -217z"/>
<path d="M6158 3313 c-2 -5 -4 -107 -3 -228 l0 -220 28 -2 27 -2 0 230 0 229
-24 0 c-14 0 -26 -3 -28 -7z"/>
<path d="M7668 3313 c-3 -7 -2 -404 1 -439 1 -6 12 -11 26 -11 19 0 25 5 26
21 1 26 1 394 0 419 -1 11 -9 17 -25 17 -14 0 -26 -3 -28 -7z"/>
<path d="M8339 3318 c-4 -12 -3 -441 1 -446 3 -4 15 -8 28 -10 21 -3 22 0 23
70 0 61 0 309 -1 371 0 11 -8 17 -25 17 -14 0 -25 -1 -26 -2z"/>
<path d="M1218 2154 c-62 -16 -63 -17 -90 -72 -140 -291 -354 -528 -561 -622
-106 -48 -176 -60 -319 -55 -121 4 -129 3 -153 -18 -14 -12 -29 -35 -33 -52
-4 -16 -7 -137 -6 -267 1 -258 5 -277 60 -298 16 -6 809 -10 2110 -10 l2084 0
0 100 0 100 -2025 0 c-1114 0 -2025 3 -2026 8 -6 51 -2 225 6 228 6 1 51 5
100 8 324 19 633 233 876 606 29 44 56 80 61 80 5 0 38 -22 73 -49 35 -27 78
-57 94 -67 17 -10 31 -22 31 -26 0 -4 4 -8 8 -8 5 0 49 -26 98 -58 120 -79
309 -192 320 -192 5 0 20 21 34 48 13 26 34 63 46 83 l22 35 -82 50 c-192 116
-523 346 -611 425 -38 34 -59 38 -117 23z"/>
</g>
</svg>
